<svg version="1.1" xmlns="http://www.w3.org/2000/svg" xmlns:xlink="http://www.w3.org/1999/xlink" width="671.24267578125" height="731"><defs/><g><text fill="#eeeeee" stroke="none" font-family="Arial" font-size="24px" font-style="normal" font-weight="normal" text-decoration="none" x="0" y="0">UNREGISTERED</text><text fill="#eeeeee" stroke="none" font-family="Arial" font-size="24px" font-style="normal" font-weight="normal" text-decoration="none" x="0" y="30">UNREGISTERED</text><text fill="#eeeeee" stroke="none" font-family="Arial" font-size="24px" font-style="normal" font-weight="normal" text-decoration="none" x="0" y="60">UNREGISTERED</text><text fill="#eeeeee" stroke="none" font-family="Arial" font-size="24px" font-style="normal" font-weight="normal" text-decoration="none" x="0" y="90">UNREGISTERED</text><text fill="#eeeeee" stroke="none" font-family="Arial" font-size="24px" font-style="normal" font-weight="normal" text-decoration="none" x="0" y="120">UNREGISTERED</text><text fill="#eeeeee" stroke="none" font-family="Arial" font-size="24px" font-style="normal" font-weight="normal" text-decoration="none" x="0" y="150">UNREGISTERED</text><text fill="#eeeeee" stroke="none" font-family="Arial" font-size="24px" font-style="normal" font-weight="normal" text-decoration="none" x="0" y="180">UNREGISTERED</text><text fill="#eeeeee" stroke="none" font-family="Arial" font-size="24px" font-style="normal" font-weight="normal" text-decoration="none" x="0" y="210">UNREGISTERED</text><text fill="#eeeeee" stroke="none" font-family="Arial" font-size="24px" font-style="normal" font-weight="normal" text-decoration="none" x="0" y="240">UNREGISTERED</text><text fill="#eeeeee" stroke="none" font-family="Arial" font-size="24px" font-style="normal" font-weight="normal" text-decoration="none" x="0" y="270">UNREGISTERED</text><text fill="#eeeeee" stroke="none" font-family="Arial" font-size="24px" font-style="normal" font-weight="normal" text-decoration="none" x="0" y="300">UNREGISTERED</text><text fill="#eeeeee" stroke="none" font-family="Arial" font-size="24px" font-style="normal" font-weight="normal" text-decoration="none" x="0" y="330">UNREGISTERED</text><text fill="#eeeeee" stroke="none" font-family="Arial" font-size="24px" font-style="normal" font-weight="normal" text-decoration="none" x="0" y="360">UNREGISTERED</text><text fill="#eeeeee" stroke="none" font-family="Arial" font-size="24px" font-style="normal" font-weight="normal" text-decoration="none" x="0" y="390">UNREGISTERED</text><text fill="#eeeeee" stroke="none" font-family="Arial" font-size="24px" font-style="normal" font-weight="normal" text-decoration="none" x="0" y="420">UNREGISTERED</text><text fill="#eeeeee" stroke="none" font-family="Arial" font-size="24px" font-style="normal" font-weight="normal" text-decoration="none" x="0" y="450">UNREGISTERED</text><text fill="#eeeeee" stroke="none" font-family="Arial" font-size="24px" font-style="normal" font-weight="normal" text-decoration="none" x="0" y="480">UNREGISTERED</text><text fill="#eeeeee" stroke="none" font-family="Arial" font-size="24px" font-style="normal" font-weight="normal" text-decoration="none" x="0" y="510">UNREGISTERED</text><text fill="#eeeeee" stroke="none" font-family="Arial" font-size="24px" font-style="normal" font-weight="normal" text-decoration="none" x="0" y="540">UNREGISTERED</text><text fill="#eeeeee" stroke="none" font-family="Arial" font-size="24px" font-style="normal" font-weight="normal" text-decoration="none" x="0" y="570">UNREGISTERED</text><text fill="#eeeeee" stroke="none" font-family="Arial" font-size="24px" font-style="normal" font-weight="normal" text-decoration="none" x="0" y="600">UNREGISTERED</text><text fill="#eeeeee" stroke="none" font-family="Arial" font-size="24px" font-style="normal" font-weight="normal" text-decoration="none" x="0" y="630">UNREGISTERED</text><text fill="#eeeeee" stroke="none" font-family="Arial" font-size="24px" font-style="normal" font-weight="normal" text-decoration="none" x="0" y="660">UNREGISTERED</text><text fill="#eeeeee" stroke="none" font-family="Arial" font-size="24px" font-style="normal" font-weight="normal" text-decoration="none" x="0" y="690">UNREGISTERED</text><text fill="#eeeeee" stroke="none" font-family="Arial" font-size="24px" font-style="normal" font-weight="normal" text-decoration="none" x="0" y="720">UNREGISTERED</text><text fill="#eeeeee" stroke="none" font-family="Arial" font-size="24px" font-style="normal" font-weight="normal" text-decoration="none" x="200" y="0">UNREGISTERED</text><text fill="#eeeeee" stroke="none" font-family="Arial" font-size="24px" font-style="normal" font-weight="normal" text-decoration="none" x="200" y="30">UNREGISTERED</text><text fill="#eeeeee" stroke="none" font-family="Arial" font-size="24px" font-style="normal" font-weight="normal" text-decoration="none" x="200" y="60">UNREGISTERED</text><text fill="#eeeeee" stroke="none" font-family="Arial" font-size="24px" font-style="normal" font-weight="normal" text-decoration="none" x="200" y="90">UNREGISTERED</text><text fill="#eeeeee" stroke="none" font-family="Arial" font-size="24px" font-style="normal" font-weight="normal" text-decoration="none" x="200" y="120">UNREGISTERED</text><text fill="#eeeeee" stroke="none" font-family="Arial" font-size="24px" font-style="normal" font-weight="normal" text-decoration="none" x="200" y="150">UNREGISTERED</text><text fill="#eeeeee" stroke="none" font-family="Arial" font-size="24px" font-style="normal" font-weight="normal" text-decoration="none" x="200" y="180">UNREGISTERED</text><text fill="#eeeeee" stroke="none" font-family="Arial" font-size="24px" font-style="normal" font-weight="normal" text-decoration="none" x="200" y="210">UNREGISTERED</text><text fill="#eeeeee" stroke="none" font-family="Arial" font-size="24px" font-style="normal" font-weight="normal" text-decoration="none" x="200" y="240">UNREGISTERED</text><text fill="#eeeeee" stroke="none" font-family="Arial" font-size="24px" font-style="normal" font-weight="normal" text-decoration="none" x="200" y="270">UNREGISTERED</text><text fill="#eeeeee" stroke="none" font-family="Arial" font-size="24px" font-style="normal" font-weight="normal" text-decoration="none" x="200" y="300">UNREGISTERED</text><text fill="#eeeeee" stroke="none" font-family="Arial" font-size="24px" font-style="normal" font-weight="normal" text-decoration="none" x="200" y="330">UNREGISTERED</text><text fill="#eeeeee" stroke="none" font-family="Arial" font-size="24px" font-style="normal" font-weight="normal" text-decoration="none" x="200" y="360">UNREGISTERED</text><text fill="#eeeeee" stroke="none" font-family="Arial" font-size="24px" font-style="normal" font-weight="normal" text-decoration="none" x="200" y="390">UNREGISTERED</text><text fill="#eeeeee" stroke="none" font-family="Arial" font-size="24px" font-style="normal" font-weight="normal" text-decoration="none" x="200" y="420">UNREGISTERED</text><text fill="#eeeeee" stroke="none" font-family="Arial" font-size="24px" font-style="normal" font-weight="normal" text-decoration="none" x="200" y="450">UNREGISTERED</text><text fill="#eeeeee" stroke="none" font-family="Arial" font-size="24px" font-style="normal" font-weight="normal" text-decoration="none" x="200" y="480">UNREGISTERED</text><text fill="#eeeeee" stroke="none" font-family="Arial" font-size="24px" font-style="normal" font-weight="normal" text-decoration="none" x="200" y="510">UNREGISTERED</text><text fill="#eeeeee" stroke="none" font-family="Arial" font-size="24px" font-style="normal" font-weight="normal" text-decoration="none" x="200" y="540">UNREGISTERED</text><text fill="#eeeeee" stroke="none" font-family="Arial" font-size="24px" font-style="normal" font-weight="normal" text-decoration="none" x="200" y="570">UNREGISTERED</text><text fill="#eeeeee" stroke="none" font-family="Arial" font-size="24px" font-style="normal" font-weight="normal" text-decoration="none" x="200" y="600">UNREGISTERED</text><text fill="#eeeeee" stroke="none" font-family="Arial" font-size="24px" font-style="normal" font-weight="normal" text-decoration="none" x="200" y="630">UNREGISTERED</text><text fill="#eeeeee" stroke="none" font-family="Arial" font-size="24px" font-style="normal" font-weight="normal" text-decoration="none" x="200" y="660">UNREGISTERED</text><text fill="#eeeeee" stroke="none" font-family="Arial" font-size="24px" font-style="normal" font-weight="normal" text-decoration="none" x="200" y="690">UNREGISTERED</text><text fill="#eeeeee" stroke="none" font-family="Arial" font-size="24px" font-style="normal" font-weight="normal" text-decoration="none" x="200" y="720">UNREGISTERED</text><text fill="#eeeeee" stroke="none" font-family="Arial" font-size="24px" font-style="normal" font-weight="normal" text-decoration="none" x="400" y="0">UNREGISTERED</text><text fill="#eeeeee" stroke="none" font-family="Arial" font-size="24px" font-style="normal" font-weight="normal" text-decoration="none" x="400" y="30">UNREGISTERED</text><text fill="#eeeeee" stroke="none" font-family="Arial" font-size="24px" font-style="normal" font-weight="normal" text-decoration="none" x="400" y="60">UNREGISTERED</text><text fill="#eeeeee" stroke="none" font-family="Arial" font-size="24px" font-style="normal" font-weight="normal" text-decoration="none" x="400" y="90">UNREGISTERED</text><text fill="#eeeeee" stroke="none" font-family="Arial" font-size="24px" font-style="normal" font-weight="normal" text-decoration="none" x="400" y="120">UNREGISTERED</text><text fill="#eeeeee" stroke="none" font-family="Arial" font-size="24px" font-style="normal" font-weight="normal" text-decoration="none" x="400" y="150">UNREGISTERED</text><text fill="#eeeeee" stroke="none" font-family="Arial" font-size="24px" font-style="normal" font-weight="normal" text-decoration="none" x="400" y="180">UNREGISTERED</text><text fill="#eeeeee" stroke="none" font-family="Arial" font-size="24px" font-style="normal" font-weight="normal" text-decoration="none" x="400" y="210">UNREGISTERED</text><text fill="#eeeeee" stroke="none" font-family="Arial" font-size="24px" font-style="normal" font-weight="normal" text-decoration="none" x="400" y="240">UNREGISTERED</text><text fill="#eeeeee" stroke="none" font-family="Arial" font-size="24px" font-style="normal" font-weight="normal" text-decoration="none" x="400" y="270">UNREGISTERED</text><text fill="#eeeeee" stroke="none" font-family="Arial" font-size="24px" font-style="normal" font-weight="normal" text-decoration="none" x="400" y="300">UNREGISTERED</text><text fill="#eeeeee" stroke="none" font-family="Arial" font-size="24px" font-style="normal" font-weight="normal" text-decoration="none" x="400" y="330">UNREGISTERED</text><text fill="#eeeeee" stroke="none" font-family="Arial" font-size="24px" font-style="normal" font-weight="normal" text-decoration="none" x="400" y="360">UNREGISTERED</text><text fill="#eeeeee" stroke="none" font-family="Arial" font-size="24px" font-style="normal" font-weight="normal" text-decoration="none" x="400" y="390">UNREGISTERED</text><text fill="#eeeeee" stroke="none" font-family="Arial" font-size="24px" font-style="normal" font-weight="normal" text-decoration="none" x="400" y="420">UNREGISTERED</text><text fill="#eeeeee" stroke="none" font-family="Arial" font-size="24px" font-style="normal" font-weight="normal" text-decoration="none" x="400" y="450">UNREGISTERED</text><text fill="#eeeeee" stroke="none" font-family="Arial" font-size="24px" font-style="normal" font-weight="normal" text-decoration="none" x="400" y="480">UNREGISTERED</text><text fill="#eeeeee" stroke="none" font-family="Arial" font-size="24px" font-style="normal" font-weight="normal" text-decoration="none" x="400" y="510">UNREGISTERED</text><text fill="#eeeeee" stroke="none" font-family="Arial" font-size="24px" font-style="normal" font-weight="normal" text-decoration="none" x="400" y="540">UNREGISTERED</text><text fill="#eeeeee" stroke="none" font-family="Arial" font-size="24px" font-style="normal" font-weight="normal" text-decoration="none" x="400" y="570">UNREGISTERED</text><text fill="#eeeeee" stroke="none" font-family="Arial" font-size="24px" font-style="normal" font-weight="normal" text-decoration="none" x="400" y="600">UNREGISTERED</text><text fill="#eeeeee" stroke="none" font-family="Arial" font-size="24px" font-style="normal" font-weight="normal" text-decoration="none" x="400" y="630">UNREGISTERED</text><text fill="#eeeeee" stroke="none" font-family="Arial" font-size="24px" font-style="normal" font-weight="normal" text-decoration="none" x="400" y="660">UNREGISTERED</text><text fill="#eeeeee" stroke="none" font-family="Arial" font-size="24px" font-style="normal" font-weight="normal" text-decoration="none" x="400" y="690">UNREGISTERED</text><text fill="#eeeeee" stroke="none" font-family="Arial" font-size="24px" font-style="normal" font-weight="normal" text-decoration="none" x="400" y="720">UNREGISTERED</text><text fill="#eeeeee" stroke="none" font-family="Arial" font-size="24px" font-style="normal" font-weight="normal" text-decoration="none" x="600" y="0">UNREGISTERED</text><text fill="#eeeeee" stroke="none" font-family="Arial" font-size="24px" font-style="normal" font-weight="normal" text-decoration="none" x="600" y="30">UNREGISTERED</text><text fill="#eeeeee" stroke="none" font-family="Arial" font-size="24px" font-style="normal" font-weight="normal" text-decoration="none" x="600" y="60">UNREGISTERED</text><text fill="#eeeeee" stroke="none" font-family="Arial" font-size="24px" font-style="normal" font-weight="normal" text-decoration="none" x="600" y="90">UNREGISTERED</text><text fill="#eeeeee" stroke="none" font-family="Arial" font-size="24px" font-style="normal" font-weight="normal" text-decoration="none" x="600" y="120">UNREGISTERED</text><text fill="#eeeeee" stroke="none" font-family="Arial" font-size="24px" font-style="normal" font-weight="normal" text-decoration="none" x="600" y="150">UNREGISTERED</text><text fill="#eeeeee" stroke="none" font-family="Arial" font-size="24px" font-style="normal" font-weight="normal" text-decoration="none" x="600" y="180">UNREGISTERED</text><text fill="#eeeeee" stroke="none" font-family="Arial" font-size="24px" font-style="normal" font-weight="normal" text-decoration="none" x="600" y="210">UNREGISTERED</text><text fill="#eeeeee" stroke="none" font-family="Arial" font-size="24px" font-style="normal" font-weight="normal" text-decoration="none" x="600" y="240">UNREGISTERED</text><text fill="#eeeeee" stroke="none" font-family="Arial" font-size="24px" font-style="normal" font-weight="normal" text-decoration="none" x="600" y="270">UNREGISTERED</text><text fill="#eeeeee" stroke="none" font-family="Arial" font-size="24px" font-style="normal" font-weight="normal" text-decoration="none" x="600" y="300">UNREGISTERED</text><text fill="#eeeeee" stroke="none" font-family="Arial" font-size="24px" font-style="normal" font-weight="normal" text-decoration="none" x="600" y="330">UNREGISTERED</text><text fill="#eeeeee" stroke="none" font-family="Arial" font-size="24px" font-style="normal" font-weight="normal" text-decoration="none" x="600" y="360">UNREGISTERED</text><text fill="#eeeeee" stroke="none" font-family="Arial" font-size="24px" font-style="normal" font-weight="normal" text-decoration="none" x="600" y="390">UNREGISTERED</text><text fill="#eeeeee" stroke="none" font-family="Arial" font-size="24px" font-style="normal" font-weight="normal" text-decoration="none" x="600" y="420">UNREGISTERED</text><text fill="#eeeeee" stroke="none" font-family="Arial" font-size="24px" font-style="normal" font-weight="normal" text-decoration="none" x="600" y="450">UNREGISTERED</text><text fill="#eeeeee" stroke="none" font-family="Arial" font-size="24px" font-style="normal" font-weight="normal" text-decoration="none" x="600" y="480">UNREGISTERED</text><text fill="#eeeeee" stroke="none" font-family="Arial" font-size="24px" font-style="normal" font-weight="normal" text-decoration="none" x="600" y="510">UNREGISTERED</text><text fill="#eeeeee" stroke="none" font-family="Arial" font-size="24px" font-style="normal" font-weight="normal" text-decoration="none" x="600" y="540">UNREGISTERED</text><text fill="#eeeeee" stroke="none" font-family="Arial" font-size="24px" font-style="normal" font-weight="normal" text-decoration="none" x="600" y="570">UNREGISTERED</text><text fill="#eeeeee" stroke="none" font-family="Arial" font-size="24px" font-style="normal" font-weight="normal" text-decoration="none" x="600" y="600">UNREGISTERED</text><text fill="#eeeeee" stroke="none" font-family="Arial" font-size="24px" font-style="normal" font-weight="normal" text-decoration="none" x="600" y="630">UNREGISTERED</text><text fill="#eeeeee" stroke="none" font-family="Arial" font-size="24px" font-style="normal" font-weight="normal" text-decoration="none" x="600" y="660">UNREGISTERED</text><text fill="#eeeeee" stroke="none" font-family="Arial" font-size="24px" font-style="normal" font-weight="normal" text-decoration="none" x="600" y="690">UNREGISTERED</text><text fill="#eeeeee" stroke="none" font-family="Arial" font-size="24px" font-style="normal" font-weight="normal" text-decoration="none" x="600" y="720">UNREGISTERED</text><g transform="translate(-6,-30) scale(1,1)"><rect fill="#C0C0C0" stroke="none" x="167" y="52" width="170.958984375" height="130" opacity="0.2"/></g><g transform="translate(-6,-30) scale(1,1)"><rect fill="#C0C0C0" stroke="none" x="337.958984375" y="47" width="9" height="9" opacity="0.2"/></g><g transform="translate(-6,-30) scale(1,1)"><rect fill="#ff0000" stroke="none" x="160" y="45" width="170.958984375" height="130"/></g><g transform="translate(-6,-30) scale(1,1)"><path fill="none" stroke="#000000" d="M 160 45 L 330.958984375 45 L 330.958984375 175 L 160 175 L 160 45 Z Z" stroke-miterlimit="10"/></g><g transform="translate(-6,-30) scale(1,1)"><path fill="none" stroke="#000000" d="M 160 70 L 330.958984375 70" stroke-miterlimit="10"/></g><g transform="translate(-6,-30) scale(1,1)"><path fill="none" stroke="#000000" d="M 160 138 L 330.958984375 138" stroke-miterlimit="10"/></g><g transform="translate(-6,-30) scale(1,1)"><g><path fill="none" stroke="none"/><text fill="#000000" stroke="none" font-family="Arial" font-size="13px" font-style="normal" font-weight="bold" text-decoration="none" x="203.575439453125" y="64.5">Administrateur</text></g></g><g transform="translate(-6,-30) scale(1,1)"><g><path fill="none" stroke="none"/><text fill="#000000" stroke="none" font-family="Arial" font-size="13px" font-style="normal" font-weight="normal" text-decoration="none" x="165" y="87.5">+Nom</text></g></g><g transform="translate(-6,-30) scale(1,1)"><g><path fill="none" stroke="none"/><text fill="#000000" stroke="none" font-family="Arial" font-size="13px" font-style="normal" font-weight="normal" text-decoration="none" x="165" y="102.5">+Prénom</text></g></g><g transform="translate(-6,-30) scale(1,1)"><g><path fill="none" stroke="none"/><text fill="#000000" stroke="none" font-family="Arial" font-size="13px" font-style="normal" font-weight="normal" text-decoration="none" x="165" y="117.5">+Cin</text></g></g><g transform="translate(-6,-30) scale(1,1)"><g><path fill="none" stroke="none"/><text fill="#000000" stroke="none" font-family="Arial" font-size="13px" font-style="normal" font-weight="normal" text-decoration="none" x="165" y="132.5">+Mot de passe</text></g></g><g transform="translate(-6,-30) scale(1,1)"><g><path fill="none" stroke="none"/><text fill="#000000" stroke="none" font-family="Arial" font-size="13px" font-style="normal" font-weight="normal" text-decoration="none" x="165" y="155.5">+Gérer les inscriptions ()</text></g></g><g transform="translate(-6,-30) scale(1,1)"><g><path fill="none" stroke="none"/><text fill="#000000" stroke="none" font-family="Arial" font-size="13px" font-style="normal" font-weight="normal" text-decoration="none" x="165" y="170.5">+Gérer les sessions()</text></g></g><g transform="translate(-6,-30) scale(1,1)"><rect fill="#ff0000" stroke="none" x="330.958984375" y="40" width="9" height="9"/></g><g transform="translate(-6,-30) scale(1,1)"><path fill="none" stroke="#000000" d="M 330.958984375 40 L 339.958984375 40 L 339.958984375 49 L 330.958984375 49 L 330.958984375 40 Z Z" stroke-miterlimit="10" stroke-dasharray="3"/></g><g transform="translate(-6,-30) scale(1,1)"><rect fill="#C0C0C0" stroke="none" x="23" y="271" width="94.63623046875" height="160" opacity="0.2"/></g><g transform="translate(-6,-30) scale(1,1)"><rect fill="#00d600" stroke="none" x="16" y="264" width="94.63623046875" height="160"/></g><g transform="translate(-6,-30) scale(1,1)"><path fill="none" stroke="#000000" d="M 16 264 L 110.63623046875 264 L 110.63623046875 424 L 16 424 L 16 264 Z Z" stroke-miterlimit="10"/></g><g transform="translate(-6,-30) scale(1,1)"><path fill="none" stroke="#000000" d="M 16 289 L 110.63623046875 289" stroke-miterlimit="10"/></g><g transform="translate(-6,-30) scale(1,1)"><path fill="none" stroke="#000000" d="M 16 387 L 110.63623046875 387" stroke-miterlimit="10"/></g><g transform="translate(-6,-30) scale(1,1)"><g><path fill="none" stroke="none"/><text fill="#000000" stroke="none" font-family="Arial" font-size="13px" font-style="normal" font-weight="bold" text-decoration="none" x="30.072265625" y="283.5">Apprenants</text></g></g><g transform="translate(-6,-30) scale(1,1)"><g><path fill="none" stroke="none"/><text fill="#000000" stroke="none" font-family="Arial" font-size="13px" font-style="normal" font-weight="normal" text-decoration="none" x="21" y="306.5">+Nom</text></g></g><g transform="translate(-6,-30) scale(1,1)"><g><path fill="none" stroke="none"/><text fill="#000000" stroke="none" font-family="Arial" font-size="13px" font-style="normal" font-weight="normal" text-decoration="none" x="21" y="321.5">+Prénom</text></g></g><g transform="translate(-6,-30) scale(1,1)"><g><path fill="none" stroke="none"/><text fill="#000000" stroke="none" font-family="Arial" font-size="13px" font-style="normal" font-weight="normal" text-decoration="none" x="21" y="336.5">+CIN</text></g></g><g transform="translate(-6,-30) scale(1,1)"><g><path fill="none" stroke="none"/><text fill="#000000" stroke="none" font-family="Arial" font-size="13px" font-style="normal" font-weight="normal" text-decoration="none" x="21" y="351.5">+Mot de passe</text></g></g><g transform="translate(-6,-30) scale(1,1)"><g><path fill="none" stroke="none"/><text fill="#000000" stroke="none" font-family="Arial" font-size="13px" font-style="normal" font-weight="normal" text-decoration="none" x="21" y="366.5">+niveau</text></g></g><g transform="translate(-6,-30) scale(1,1)"><g><path fill="none" stroke="none"/><text fill="#000000" stroke="none" font-family="Arial" font-size="13px" font-style="normal" font-weight="normal" text-decoration="none" x="21" y="381.5">+spécialité</text></g></g><g transform="translate(-6,-30) scale(1,1)"><g><path fill="none" stroke="none"/><text fill="#000000" stroke="none" font-family="Arial" font-size="13px" font-style="normal" font-weight="normal" text-decoration="none" x="21" y="404.5">+s'inscrire()</text></g></g><g transform="translate(-6,-30) scale(1,1)"><g><path fill="none" stroke="none"/><text fill="#000000" stroke="none" font-family="Arial" font-size="13px" font-style="normal" font-weight="normal" text-decoration="none" x="21" y="419.5">+s'identifier()</text></g></g><g transform="translate(-6,-30) scale(1,1)"><path fill="none" stroke="#000000" d="M 159 171 L 56 244 L 57 263" stroke-miterlimit="10"/></g><g transform="translate(-6,-30) scale(1,1)"><path fill="#FFFFFF" stroke="none" d="M 47.52432436805577 243.1452380694661 L 57 263 L 64.33912230425312 242.26024870440307"/></g><g transform="translate(-6,-30) scale(1,1)"><path fill="none" stroke="#000000" d="M 47.52432436805577 243.1452380694661 L 57 263 L 64.33912230425312 242.26024870440307 L 47.52432436805577 243.1452380694661" stroke-miterlimit="10"/></g><g transform="translate(-6,-30) scale(1,1)"><rect fill="#C0C0C0" stroke="none" x="151" y="255" width="123.537109375" height="190" opacity="0.2"/></g><g transform="translate(-6,-30) scale(1,1)"><rect fill="#49ffe0" stroke="none" x="144" y="248" width="123.537109375" height="190"/></g><g transform="translate(-6,-30) scale(1,1)"><path fill="none" stroke="#000000" d="M 144 248 L 267.537109375 248 L 267.537109375 438 L 144 438 L 144 248 Z Z" stroke-miterlimit="10"/></g><g transform="translate(-6,-30) scale(1,1)"><path fill="none" stroke="#000000" d="M 144 273 L 267.537109375 273" stroke-miterlimit="10"/></g><g transform="translate(-6,-30) scale(1,1)"><path fill="none" stroke="#000000" d="M 144 386 L 267.537109375 386" stroke-miterlimit="10"/></g><g transform="translate(-6,-30) scale(1,1)"><g><path fill="none" stroke="none"/><text fill="#000000" stroke="none" font-family="Arial" font-size="13px" font-style="normal" font-weight="bold" text-decoration="none" x="169.9931640625" y="267.5">Enseignants</text></g></g><g transform="translate(-6,-30) scale(1,1)"><g><path fill="none" stroke="none"/><text fill="#000000" stroke="none" font-family="Arial" font-size="13px" font-style="normal" font-weight="normal" text-decoration="none" x="149" y="290.5">+Nom</text></g></g><g transform="translate(-6,-30) scale(1,1)"><g><path fill="none" stroke="none"/><text fill="#000000" stroke="none" font-family="Arial" font-size="13px" font-style="normal" font-weight="normal" text-decoration="none" x="149" y="305.5">+Prénom</text></g></g><g transform="translate(-6,-30) scale(1,1)"><g><path fill="none" stroke="none"/><text fill="#000000" stroke="none" font-family="Arial" font-size="13px" font-style="normal" font-weight="normal" text-decoration="none" x="149" y="320.5">+CIN</text></g></g><g transform="translate(-6,-30) scale(1,1)"><g><path fill="none" stroke="none"/><text fill="#000000" stroke="none" font-family="Arial" font-size="13px" font-style="normal" font-weight="normal" text-decoration="none" x="149" y="335.5">+spécialité</text></g></g><g transform="translate(-6,-30) scale(1,1)"><g><path fill="none" stroke="none"/><text fill="#000000" stroke="none" font-family="Arial" font-size="13px" font-style="normal" font-weight="normal" text-decoration="none" x="149" y="350.5">+Répartition horaire</text></g></g><g transform="translate(-6,-30) scale(1,1)"><g><path fill="none" stroke="none"/><text fill="#000000" stroke="none" font-family="Arial" font-size="13px" font-style="normal" font-weight="normal" text-decoration="none" x="149" y="365.5">+niveaux</text></g></g><g transform="translate(-6,-30) scale(1,1)"><g><path fill="none" stroke="none"/><text fill="#000000" stroke="none" font-family="Arial" font-size="13px" font-style="normal" font-weight="normal" text-decoration="none" x="149" y="380.5">+fiche de Paie </text></g></g><g transform="translate(-6,-30) scale(1,1)"><g><path fill="none" stroke="none"/><text fill="#000000" stroke="none" font-family="Arial" font-size="13px" font-style="normal" font-weight="normal" text-decoration="none" x="149" y="403.5">+S'identifier ()</text></g></g><g transform="translate(-6,-30) scale(1,1)"><g><path fill="none" stroke="none"/><text fill="#000000" stroke="none" font-family="Arial" font-size="13px" font-style="normal" font-weight="normal" text-decoration="none" x="149" y="418.5">+Enseigner()</text></g></g><g transform="translate(-6,-30) scale(1,1)"><g><path fill="none" stroke="none"/><text fill="#000000" stroke="none" font-family="Arial" font-size="13px" font-style="normal" font-weight="normal" text-decoration="none" x="149" y="433.5">+Evaluer()</text></g></g><g transform="translate(-6,-30) scale(1,1)"><path fill="none" stroke="#000000" d="M 237 176 L 223 247" stroke-miterlimit="10"/></g><g transform="translate(-6,-30) scale(1,1)"><path fill="#FFFFFF" stroke="none" d="M 218.672114255092 225.42989557329352 L 223 247 L 235.19208975260108 228.68735553054884"/></g><g transform="translate(-6,-30) scale(1,1)"><path fill="none" stroke="#000000" d="M 218.672114255092 225.42989557329352 L 223 247 L 235.19208975260108 228.68735553054884 L 218.672114255092 225.42989557329352" stroke-miterlimit="10"/></g><g transform="translate(-6,-30) scale(1,1)"><rect fill="#C0C0C0" stroke="none" x="335" y="263" width="149.5498046875" height="87" opacity="0.2"/></g><g transform="translate(-6,-30) scale(1,1)"><rect fill="#0000ff" stroke="none" x="328" y="256" width="149.5498046875" height="87"/></g><g transform="translate(-6,-30) scale(1,1)"><path fill="none" stroke="#000000" d="M 328 256 L 477.5498046875 256 L 477.5498046875 343 L 328 343 L 328 256 Z Z" stroke-miterlimit="10"/></g><g transform="translate(-6,-30) scale(1,1)"><path fill="none" stroke="#000000" d="M 328 281 L 477.5498046875 281" stroke-miterlimit="10"/></g><g transform="translate(-6,-30) scale(1,1)"><path fill="none" stroke="#000000" d="M 328 319 L 477.5498046875 319" stroke-miterlimit="10"/></g><g transform="translate(-6,-30) scale(1,1)"><g><path fill="none" stroke="none"/><text fill="#000000" stroke="none" font-family="Arial" font-size="13px" font-style="normal" font-weight="bold" text-decoration="none" x="385.436279296875" y="275.5">Cours</text></g></g><g transform="translate(-6,-30) scale(1,1)"><g><path fill="none" stroke="none"/><text fill="#000000" stroke="none" font-family="Arial" font-size="13px" font-style="normal" font-weight="normal" text-decoration="none" x="333" y="298.5">+niveau</text></g></g><g transform="translate(-6,-30) scale(1,1)"><g><path fill="none" stroke="none"/><text fill="#000000" stroke="none" font-family="Arial" font-size="13px" font-style="normal" font-weight="normal" text-decoration="none" x="333" y="313.5">+nombres de spécialités</text></g></g><g transform="translate(-6,-30) scale(1,1)"><path fill="none" stroke="#000000" d="M 305 176 L 367 255" stroke-miterlimit="10"/></g><g transform="translate(-6,-30) scale(1,1)"><path fill="#FFFFFF" stroke="none" d="M 347.828551368547 244.2085423889282 L 367 255 L 361.0744515232061 233.813025811854"/></g><g transform="translate(-6,-30) scale(1,1)"><path fill="none" stroke="#000000" d="M 347.828551368547 244.2085423889282 L 367 255 L 361.0744515232061 233.813025811854 L 347.828551368547 244.2085423889282" stroke-miterlimit="10"/></g><g transform="translate(-6,-30) scale(1,1)"><rect fill="#C0C0C0" stroke="none" x="567" y="271" width="107.24267578125" height="102" opacity="0.2"/></g><g transform="translate(-6,-30) scale(1,1)"><rect fill="#003d5b" stroke="none" x="560" y="264" width="107.24267578125" height="102"/></g><g transform="translate(-6,-30) scale(1,1)"><path fill="none" stroke="#000000" d="M 560 264 L 667.24267578125 264 L 667.24267578125 366 L 560 366 L 560 264 Z Z" stroke-miterlimit="10"/></g><g transform="translate(-6,-30) scale(1,1)"><path fill="none" stroke="#000000" d="M 560 289 L 667.24267578125 289" stroke-miterlimit="10"/></g><g transform="translate(-6,-30) scale(1,1)"><path fill="none" stroke="#000000" d="M 560 357 L 667.24267578125 357" stroke-miterlimit="10"/></g><g transform="translate(-6,-30) scale(1,1)"><g><path fill="none" stroke="none"/><text fill="#000000" stroke="none" font-family="Arial" font-size="13px" font-style="normal" font-weight="bold" text-decoration="none" x="582.187744140625" y="283.5">Spécialités</text></g></g><g transform="translate(-6,-30) scale(1,1)"><g><path fill="none" stroke="none"/><text fill="#000000" stroke="none" font-family="Arial" font-size="13px" font-style="normal" font-weight="normal" text-decoration="none" x="565" y="306.5">+niveau</text></g></g><g transform="translate(-6,-30) scale(1,1)"><g><path fill="none" stroke="none"/><text fill="#000000" stroke="none" font-family="Arial" font-size="13px" font-style="normal" font-weight="normal" text-decoration="none" x="565" y="321.5">+coéfficient</text></g></g><g transform="translate(-6,-30) scale(1,1)"><g><path fill="none" stroke="none"/><text fill="#000000" stroke="none" font-family="Arial" font-size="13px" font-style="normal" font-weight="normal" text-decoration="none" x="565" y="336.5">+nombre d'heure</text></g></g><g transform="translate(-6,-30) scale(1,1)"><g><path fill="none" stroke="none"/><text fill="#000000" stroke="none" font-family="Arial" font-size="13px" font-style="normal" font-weight="normal" text-decoration="none" x="565" y="351.5">+enseignants </text></g></g><g transform="translate(-6,-30) scale(1,1)"><path fill="none" stroke="#000000" d="M 479 305 L 559 311" stroke-miterlimit="10"/></g><g transform="translate(-6,-30) scale(1,1)"><path fill="#FFFFFF" stroke="none" d="M 489.44904196973823 301.5623377253359 L 479 305 L 488.81938273954887 309.9577941278606 L 500.938384817546 306.645378861316"/></g><g transform="translate(-6,-30) scale(1,1)"><path fill="none" stroke="#000000" d="M 489.44904196973823 301.5623377253359 L 479 305 L 488.81938273954887 309.9577941278606 L 500.938384817546 306.645378861316 L 489.44904196973823 301.5623377253359" stroke-miterlimit="10"/></g><g transform="translate(-6,-30) scale(1,1)"><g><path fill="none" stroke="none"/><text fill="#000000" stroke="none" font-family="Arial" font-size="13px" font-style="normal" font-weight="normal" text-decoration="none" x="489.5" y="325.5">1..*</text></g></g><g transform="translate(-6,-30) scale(1,1)"><rect fill="#C0C0C0" stroke="none" x="487" y="479" width="142.65625" height="102" opacity="0.2"/></g><g transform="translate(-6,-30) scale(1,1)"><rect fill="#ffbf00" stroke="none" x="480" y="472" width="142.65625" height="102"/></g><g transform="translate(-6,-30) scale(1,1)"><path fill="none" stroke="#000000" d="M 480 472 L 622.65625 472 L 622.65625 574 L 480 574 L 480 472 Z Z" stroke-miterlimit="10"/></g><g transform="translate(-6,-30) scale(1,1)"><path fill="none" stroke="#000000" d="M 480 497 L 622.65625 497" stroke-miterlimit="10"/></g><g transform="translate(-6,-30) scale(1,1)"><path fill="none" stroke="#000000" d="M 480 550 L 622.65625 550" stroke-miterlimit="10"/></g><g transform="translate(-6,-30) scale(1,1)"><g><path fill="none" stroke="none"/><text fill="#000000" stroke="none" font-family="Arial" font-size="13px" font-style="normal" font-weight="bold" text-decoration="none" x="526.397705078125" y="491.5">Groupes</text></g></g><g transform="translate(-6,-30) scale(1,1)"><g><path fill="none" stroke="none"/><text fill="#000000" stroke="none" font-family="Arial" font-size="13px" font-style="normal" font-weight="normal" text-decoration="none" x="485" y="514.5">+nombre d'apprenants </text></g></g><g transform="translate(-6,-30) scale(1,1)"><g><path fill="none" stroke="none"/><text fill="#000000" stroke="none" font-family="Arial" font-size="13px" font-style="normal" font-weight="normal" text-decoration="none" x="485" y="529.5">+Emploi de temps</text></g></g><g transform="translate(-6,-30) scale(1,1)"><g><path fill="none" stroke="none"/><text fill="#000000" stroke="none" font-family="Arial" font-size="13px" font-style="normal" font-weight="normal" text-decoration="none" x="485" y="544.5">+responsable</text></g></g><g transform="translate(-6,-30) scale(1,1)"><rect fill="#C0C0C0" stroke="none" x="535" y="671" width="80.20166015625" height="87" opacity="0.2"/></g><g transform="translate(-6,-30) scale(1,1)"><rect fill="#00b799" stroke="none" x="528" y="664" width="80.20166015625" height="87"/></g><g transform="translate(-6,-30) scale(1,1)"><path fill="none" stroke="#000000" d="M 528 664 L 608.20166015625 664 L 608.20166015625 751 L 528 751 L 528 664 Z Z" stroke-miterlimit="10"/></g><g transform="translate(-6,-30) scale(1,1)"><path fill="none" stroke="#000000" d="M 528 689 L 608.20166015625 689" stroke-miterlimit="10"/></g><g transform="translate(-6,-30) scale(1,1)"><path fill="none" stroke="#000000" d="M 528 742 L 608.20166015625 742" stroke-miterlimit="10"/></g><g transform="translate(-6,-30) scale(1,1)"><g><path fill="none" stroke="none"/><text fill="#000000" stroke="none" font-family="Arial" font-size="13px" font-style="normal" font-weight="bold" text-decoration="none" x="543.890869140625" y="683.5">séances</text></g></g><g transform="translate(-6,-30) scale(1,1)"><g><path fill="none" stroke="none"/><text fill="#000000" stroke="none" font-family="Arial" font-size="13px" font-style="normal" font-weight="normal" text-decoration="none" x="533" y="706.5">+durée</text></g></g><g transform="translate(-6,-30) scale(1,1)"><g><path fill="none" stroke="none"/><text fill="#000000" stroke="none" font-family="Arial" font-size="13px" font-style="normal" font-weight="normal" text-decoration="none" x="533" y="721.5">+spécialité</text></g></g><g transform="translate(-6,-30) scale(1,1)"><g><path fill="none" stroke="none"/><text fill="#000000" stroke="none" font-family="Arial" font-size="13px" font-style="normal" font-weight="normal" text-decoration="none" x="533" y="736.5">+enseignant</text></g></g><g transform="translate(-6,-30) scale(1,1)"><path fill="none" stroke="#000000" d="M 556 575 L 564 663" stroke-miterlimit="10"/></g><g transform="translate(-6,-30) scale(1,1)"><path fill="#FFFFFF" stroke="none" d="M 561.112315485744 584.739827019728 L 556 575 L 552.727855214301 585.5020506807682 L 557.9917864129354 596.9096505422895"/></g><g transform="translate(-6,-30) scale(1,1)"><path fill="none" stroke="#000000" d="M 561.112315485744 584.739827019728 L 556 575 L 552.727855214301 585.5020506807682 L 557.9917864129354 596.9096505422895 L 561.112315485744 584.739827019728" stroke-miterlimit="10"/></g><g transform="translate(-6,-30) scale(1,1)"><g><path fill="none" stroke="none"/><text fill="#000000" stroke="none" font-family="Arial" font-size="13px" font-style="normal" font-weight="normal" text-decoration="none" x="539.5" y="648.5">1..*</text></g></g><g transform="translate(-6,-30) scale(1,1)"><rect fill="#C0C0C0" stroke="none" x="127" y="599" width="80.20166015625" height="87" opacity="0.2"/></g><g transform="translate(-6,-30) scale(1,1)"><rect fill="#f90808" stroke="none" x="120" y="592" width="80.20166015625" height="87"/></g><g transform="translate(-6,-30) scale(1,1)"><path fill="none" stroke="#000000" d="M 120 592 L 200.20166015625 592 L 200.20166015625 679 L 120 679 L 120 592 Z Z" stroke-miterlimit="10"/></g><g transform="translate(-6,-30) scale(1,1)"><path fill="none" stroke="#000000" d="M 120 617 L 200.20166015625 617" stroke-miterlimit="10"/></g><g transform="translate(-6,-30) scale(1,1)"><path fill="none" stroke="#000000" d="M 120 670 L 200.20166015625 670" stroke-miterlimit="10"/></g><g transform="translate(-6,-30) scale(1,1)"><g><path fill="none" stroke="none"/><text fill="#000000" stroke="none" font-family="Arial" font-size="13px" font-style="normal" font-weight="bold" text-decoration="none" x="133.005859375" y="611.5">Examens</text></g></g><g transform="translate(-6,-30) scale(1,1)"><g><path fill="none" stroke="none"/><text fill="#000000" stroke="none" font-family="Arial" font-size="13px" font-style="normal" font-weight="normal" text-decoration="none" x="125" y="634.5">+Durée</text></g></g><g transform="translate(-6,-30) scale(1,1)"><g><path fill="none" stroke="none"/><text fill="#000000" stroke="none" font-family="Arial" font-size="13px" font-style="normal" font-weight="normal" text-decoration="none" x="125" y="649.5">+spécialité</text></g></g><g transform="translate(-6,-30) scale(1,1)"><g><path fill="none" stroke="none"/><text fill="#000000" stroke="none" font-family="Arial" font-size="13px" font-style="normal" font-weight="normal" text-decoration="none" x="125" y="664.5">+enseignant</text></g></g><g transform="translate(-6,-30) scale(1,1)"><path fill="none" stroke="#000000" d="M 567 471 L 598 367" stroke-miterlimit="10"/></g><g transform="translate(-6,-30) scale(1,1)"><path fill="#FFFFFF" stroke="none" d="M 599.1310799066796 377.9416935729669 L 598 367 L 591.0628485489668 375.53673999518713 L 591.715553446052 388.0833045680835"/></g><g transform="translate(-6,-30) scale(1,1)"><path fill="none" stroke="#000000" d="M 599.1310799066796 377.9416935729669 L 598 367 L 591.0628485489668 375.53673999518713 L 591.715553446052 388.0833045680835 L 599.1310799066796 377.9416935729669" stroke-miterlimit="10"/></g><g transform="translate(-6,-30) scale(1,1)"><g><path fill="none" stroke="none"/><text fill="#000000" stroke="none" font-family="Arial" font-size="13px" font-style="normal" font-weight="normal" text-decoration="none" x="593.5" y="397.5">1..*</text></g></g><g transform="translate(-6,-30) scale(1,1)"><path fill="none" stroke="#000000" d="M 167 591 L 190 439" stroke-miterlimit="10"/></g><g transform="translate(-6,-30) scale(1,1)"><path fill="#FFFFFF" stroke="none" d="M 192.64167325071944 449.6780879578899 L 190 439 L 184.31739666413247 448.4184934743932 L 186.70852099420122 460.7523829948442"/></g><g transform="translate(-6,-30) scale(1,1)"><path fill="none" stroke="#000000" d="M 192.64167325071944 449.6780879578899 L 190 439 L 184.31739666413247 448.4184934743932 L 186.70852099420122 460.7523829948442 L 192.64167325071944 449.6780879578899" stroke-miterlimit="10"/></g><g transform="translate(-6,-30) scale(1,1)"><g><path fill="none" stroke="none"/><text fill="#000000" stroke="none" font-family="Arial" font-size="13px" font-style="normal" font-weight="normal" text-decoration="none" x="178.5" y="577.5">1</text></g></g><g transform="translate(-6,-30) scale(1,1)"><g><path fill="none" stroke="none"/><text fill="#000000" stroke="none" font-family="Arial" font-size="13px" font-style="normal" font-weight="normal" text-decoration="none" x="196.5" y="468.5">*</text></g></g><g transform="translate(-6,-30) scale(1,1)"><path fill="none" stroke="#000000" d="M 56 425 L 48 520 L 479 523" stroke-miterlimit="10"/></g><g transform="translate(-6,-30) scale(1,1)"><path fill="#FFFFFF" stroke="none" d="M 468.80827144307665 527.1386796230191 L 479 523 L 468.86687119879156 518.7198480519824 L 457.00053292350265 522.8468714588643"/></g><g transform="translate(-6,-30) scale(1,1)"><path fill="none" stroke="#000000" d="M 468.80827144307665 527.1386796230191 L 479 523 L 468.86687119879156 518.7198480519824 L 457.00053292350265 522.8468714588643 L 468.80827144307665 527.1386796230191" stroke-miterlimit="10"/></g><g transform="translate(-6,-30) scale(1,1)"><g><path fill="none" stroke="none"/><text fill="#000000" stroke="none" font-family="Arial" font-size="13px" font-style="normal" font-weight="normal" text-decoration="none" x="38.5" y="451.5">*</text></g></g><g transform="translate(-6,-30) scale(1,1)"><g><path fill="none" stroke="none"/><text fill="#000000" stroke="none" font-family="Arial" font-size="13px" font-style="normal" font-weight="normal" text-decoration="none" x="453.5" y="541.5">1</text></g></g><g transform="translate(-6,-30) scale(1,1)"><path fill="none" stroke="#000000" d="M 90 425 L 145 591" stroke-miterlimit="10"/></g><g transform="translate(-6,-30) scale(1,1)"><path fill="#FFFFFF" stroke="none" d="M 137.8078197173263 582.6769871571936 L 145 591 L 145.79961937165638 580.0291017295541 L 138.08074193002082 570.116421097881"/></g><g transform="translate(-6,-30) scale(1,1)"><path fill="none" stroke="#000000" d="M 137.8078197173263 582.6769871571936 L 145 591 L 145.79961937165638 580.0291017295541 L 138.08074193002082 570.116421097881 L 137.8078197173263 582.6769871571936" stroke-miterlimit="10"/></g><g transform="translate(-6,-30) scale(1,1)"><g><path fill="none" stroke="none"/><text fill="#000000" stroke="none" font-family="Arial" font-size="13px" font-style="normal" font-weight="normal" text-decoration="none" x="81.5" y="455.5">*</text></g></g><g transform="translate(-6,-30) scale(1,1)"><g><path fill="none" stroke="none"/><text fill="#000000" stroke="none" font-family="Arial" font-size="13px" font-style="normal" font-weight="normal" text-decoration="none" x="122.5" y="580.5">1</text></g></g><g transform="translate(-6,-30) scale(1,1)"><path fill="none" stroke="#000000" d="M 269 376 L 479 486" stroke-miterlimit="10"/></g><g transform="translate(-6,-30) scale(1,1)"><path fill="#FFFFFF" stroke="none" d="M 468.04433644533646 485.01337135810047 L 479 486 L 471.95082781129906 477.5555242048991 L 459.5117062238366 475.79184611724776"/></g><g transform="translate(-6,-30) scale(1,1)"><path fill="none" stroke="#000000" d="M 468.04433644533646 485.01337135810047 L 479 486 L 471.95082781129906 477.5555242048991 L 459.5117062238366 475.79184611724776 L 468.04433644533646 485.01337135810047" stroke-miterlimit="10"/></g><g transform="translate(-6,-30) scale(1,1)"><g><path fill="none" stroke="none"/><text fill="#000000" stroke="none" font-family="Arial" font-size="13px" font-style="normal" font-weight="normal" text-decoration="none" x="272.5" y="403.5">1..*</text></g></g><g transform="translate(-6,-30) scale(1,1)"><g><path fill="none" stroke="none"/><text fill="#000000" stroke="none" font-family="Arial" font-size="13px" font-style="normal" font-weight="normal" text-decoration="none" x="444.5" y="493.5">1..*</text></g></g><g transform="translate(-6,-30) scale(1,1)"><path fill="none" stroke="#000000" d="M 201 606 L 559 353" stroke-miterlimit="10"/></g><g transform="translate(-6,-30) scale(1,1)"><path fill="#FFFFFF" stroke="none" d="M 553.1300776716062 362.3029034101523 L 559 353 L 548.2711920305122 355.4274842025965 L 541.0336637908158 365.6968800584458"/></g><g transform="translate(-6,-30) scale(1,1)"><path fill="none" stroke="#000000" d="M 553.1300776716062 362.3029034101523 L 559 353 L 548.2711920305122 355.4274842025965 L 541.0336637908158 365.6968800584458 L 553.1300776716062 362.3029034101523" stroke-miterlimit="10"/></g><g transform="translate(-6,-30) scale(1,1)"><g><path fill="none" stroke="none"/><text fill="#000000" stroke="none" font-family="Arial" font-size="13px" font-style="normal" font-weight="normal" text-decoration="none" x="538.5" y="381.5">1..*</text></g></g></g></svg>